<svg width="12" height="16" viewBox="0 0 12 16" fill="none" xmlns="http://www.w3.org/2000/svg">
<path d="M11.6371 7.24584L0.901036 0.579168C0.792927 0.512044 0.672606 0.486763 0.554045 0.506261C0.435483 0.525759 0.323545 0.589237 0.23123 0.689323C0.138915 0.789408 0.0700102 0.921996 0.0325166 1.07169C-0.00497696 1.22138 -0.00952076 1.38204 0.019413 1.535L0.784833 5.57583L5.68428 8L0.784833 10.4242L0.019413 14.465C-0.0100652 14.6181 -0.00590059 14.7791 0.0314196 14.9291C0.0687397 15.0792 0.137672 15.2121 0.230154 15.3124C0.322636 15.4127 0.434842 15.4761 0.553649 15.4953C0.672455 15.5145 0.792949 15.4887 0.901036 15.4208L11.6371 8.75417C11.7456 8.68687 11.8374 8.58022 11.9016 8.44667C11.9659 8.31312 12 8.15819 12 8C12 7.84181 11.9659 7.68688 11.9016 7.55334C11.8374 7.41979 11.7456 7.31313 11.6371 7.24584Z" fill="white"/>
</svg>
