<svg width="100" height="100" viewBox="0 0 100 100" fill="none" xmlns="http://www.w3.org/2000/svg">
<path d="M60.1057 52.2681L77 49.8969L60.1057 40.7048L43.1664 43.0685V52.6583L48.6404 55.6298V67.1931C48.6404 73.1361 46.1808 75.5973 42.3265 76.1601C41.8466 76.2276 41.3817 76.2501 40.9393 76.2426L41.0293 35.8499C41.0593 27.7759 43.3463 21.5027 47.793 17.4357C48.3704 18.6063 48.6853 20.2196 48.6853 22.3356V28.999L65.6246 38.2436V31.5277C65.6696 27.7684 64.6948 25.6298 62.9776 24.6993L48.4904 16.8354C51.2649 14.5543 54.7967 13.046 59.0934 12.4457C63.4126 11.8454 66.9369 12.3557 69.7189 13.8414L52.7721 4.6418C49.9901 3.15605 46.4583 2.6458 42.1466 3.2461C30.2688 4.91944 24.1425 13.3687 24.09 26.6578L24 69.8494C24 78.3512 26.5045 84.1516 31.3786 86.8004L48.3179 96C43.4438 93.3512 40.9393 87.5508 40.9393 79.049L40.9468 76.918L55.6515 84.9019C56.6263 85.4122 57.8336 85.5548 59.2733 85.3672C63.1276 84.8119 65.5422 82.3507 65.5422 76.4002L65.5872 61.1225L60.1132 58.1361V50.017L60.1057 52.2681Z" fill="black"/>
<path d="M59.0675 12.25C70.8778 10.5871 77.0449 17.2833 76.9925 30.4818V36.2757L65.5939 37.8938V31.3095C65.5939 25.4037 63.1839 23.5097 59.3894 24.0615C55.5424 24.6133 53.1324 27.156 53.1324 33.0618L53.0426 77.6011C53.0426 83.5068 55.4526 85.2592 59.2995 84.7521C63.1465 84.2003 65.5564 81.7545 65.5564 75.8413L65.6014 63.642L60.1378 64.425V51.9125L77 49.5562L76.9476 73.4924C76.9027 86.6909 70.788 95.0946 58.9253 96.7501C47.115 98.4129 40.9479 91.7167 41.0003 78.5183L41.0901 35.6418C41.0976 22.2644 47.2123 13.8606 59.0675 12.25Z" fill="white"/>
</svg>
