<svg width="49" height="115" viewBox="0 0 49 115" fill="none" xmlns="http://www.w3.org/2000/svg">
<path d="M24.79 0.570004C40.57 -1.66 48.81 7.32 48.74 25.02V35.79L33.51 37.96V26.13C33.51 18.21 30.29 15.67 25.22 16.41C20.08 17.15 16.86 20.56 16.86 28.48L16.74 88.21C16.74 96.13 19.96 98.48 25.1 97.8C30.24 97.06 33.46 93.78 33.46 85.85L33.52 65.49L26.22 66.54V50.76L48.75 47.6L48.68 82.7C48.62 100.4 40.45 111.67 24.6 113.89C8.81998 116.12 0.579978 107.14 0.649978 89.44L0.769979 31.94C0.779979 14 8.94998 2.73 24.79 0.570004Z" fill="white"/>
</svg>