<?xml version="1.0" encoding="utf-8"?>
<!-- Generator: Adobe Illustrator 21.1.0, SVG Export Plug-In . SVG Version: 6.00 Build 0)  -->
<svg version="1.1" id="Layer_1" xmlns="http://www.w3.org/2000/svg" xmlns:xlink="http://www.w3.org/1999/xlink" x="0px" y="0px"
	 viewBox="0 0 281.8 126.8" style="enable-background:new 0 0 281.8 126.8;" xml:space="preserve">
<style type="text/css">
	.st0{fill:#FFFFFF;}
</style>
<g>
	<path class="st0" d="M49.3,55.7h15.1v21.7c0,10.9-5.5,17.2-16,17.2c-10.6,0-16-6.2-16-17.2V41.8c0-10.9,5.5-17.2,16-17.2
		c10.6,0,16,6.2,16,17.2v6.6H54.2v-7.3c0-4.9-2.2-6.7-5.6-6.7c-3.4,0-5.6,1.9-5.6,6.7V78c0,4.9,2.2,6.6,5.6,6.6
		c3.4,0,5.6-1.8,5.6-6.6V65.4h-4.9V55.7z"/>
	<path class="st0" d="M91.3,24.6V78c0,4.9,2.2,6.7,5.6,6.7c3.4,0,5.6-1.8,5.6-6.7V24.6h10.2v52.7c0,11.1-5.5,17.4-16,17.4
		c-10.6,0-16-6.3-16-17.4V24.6H91.3z"/>
	<path class="st0" d="M144.9,24.6c10.5,0,15.8,6.3,15.8,17.2V44h-10.2v-2.8c0-4.9-2-6.7-5.4-6.7c-3.4,0-5.4,1.9-5.4,6.7
		c0,14.1,21,16.7,21,36.3c0,11-5.5,17.2-16,17.2s-16-6.3-16-17.2v-4.2H139v4.9c0,4.9,2.2,6.7,5.6,6.7c3.4,0,5.6-1.8,5.6-6.7
		c0-14.1-21-16.7-21-36.3C129.1,30.9,134.5,24.6,144.9,24.6z"/>
	<path class="st0" d="M177.1,24.6h32.1v10h-10.5v60h-11v-60h-10.5V24.6z"/>
	<path class="st0" d="M225.4,41.9c0-11,5.7-17.2,16-17.2c10.4,0,16,6.3,16,17.2v35.6c0,11-5.7,17.2-16,17.2c-10.4,0-16-6.3-16-17.2
		V41.9z M235.8,78.4c0,5,2.2,6.9,5.6,6.9c3.4,0,5.6-1.9,5.6-6.9V40.6c0-5-2.2-6.9-5.6-6.9c-3.4,0-5.6,1.9-5.6,6.9V78.4z"/>
</g>
<rect x="273.7" y="0" class="st0" width="8.1" height="118.8"/>
<rect x="12.7" y="0" class="st0" width="269.1" height="8.1"/>
<polygon class="st0" points="8.1,0 8,0 0,15.9 0,126.8 8,126.8 8.1,126.8 16.1,126.8 16.1,0 "/>
<polygon class="st0" points="8.1,110.7 8.1,118.8 8.1,118.8 8.1,126.8 264.9,126.8 281.8,118.8 281.8,110.7 "/>
</svg>
